<svg xmlns="http://www.w3.org/2000/svg" viewBox="0 0 150 150">
  <!-- Cookie -->
  <g transform="translate(28,30) rotate(-8)">
    <circle r="20" fill="#1a1a1a"/>
    <circle cx="-7" cy="-6" r="2.6" fill="#a3d6b6"/>
    <circle cx="6" cy="-9" r="2.2" fill="#a3d6b6"/>
    <circle cx="9" cy="4" r="2.4" fill="#a3d6b6"/>
    <circle cx="-4" cy="8" r="2.2" fill="#a3d6b6"/>
    <circle cx="2" cy="0" r="2" fill="#a3d6b6"/>
  </g>

  <!-- Brownie square -->
  <g transform="translate(112,38) rotate(14)">
    <rect x="-18" y="-16" width="36" height="32" rx="4" fill="#1a1a1a"/>
    <rect x="-12" y="-9" width="6" height="6" rx="1" fill="#a3d6b6"/>
    <rect x="2" y="-2" width="6" height="6" rx="1" fill="#a3d6b6"/>
    <rect x="-6" y="6" width="6" height="6" rx="1" fill="#a3d6b6"/>
  </g>

  <!-- Croissant -->
  <g transform="translate(40,112) rotate(6)">
    <path d="M -22 6 C -20 -14, 6 -20, 20 -4 C 8 -8, -6 -6, -12 6 C -6 4, 6 4, 14 10 C -2 14, -16 14, -22 6 Z" fill="#1a1a1a"/>
  </g>

  <!-- Cupcake -->
  <g transform="translate(114,118) rotate(-6)">
    <path d="M -13 4 L 13 4 L 9 20 C 9 23, -9 23, -9 20 Z" fill="#1a1a1a"/>
    <path d="M -14 4 C -14 -8, 14 -8, 14 4 C 8 0, -8 0, -14 4 Z" fill="#1a1a1a"/>
    <circle cx="0" cy="-11" r="3.4" fill="#1a1a1a"/>
  </g>
</svg>
